<svg xmlns="http://www.w3.org/2000/svg" viewBox="0 0 410.43 159.33"><defs><style>.cls-1{fill:#677389;}.cls-2{fill:#3576ed;}.cls-3{fill:#2d3648;}</style></defs><g id="Layer_2" data-name="Layer 2"><g id="Camada_1" data-name="Camada 1"><path class="cls-1" d="M173.23,151.7a60.66,60.66,0,0,1-7.38-.51V122.92h3.29v9a11.32,11.32,0,0,1,5.4-1.35c5.19,0,7.6,2.74,7.6,8.54v3.44C182.14,148.92,179.18,151.7,173.23,151.7ZM178.85,139c0-4.06-1.28-5.63-4.71-5.63a11.71,11.71,0,0,0-5,1.06v14.13c.91.08,2.37.19,4.16.19,3.76,0,5.55-1.54,5.55-6.32Z"/><path class="cls-1" d="M194.05,153c-1.35,3.87-2.62,6.35-6.75,6.35a20.23,20.23,0,0,1-3.91-.37v-2.52c1.57.11,2.49.15,3.8.15,2,0,2.52-1,3.61-3.94l.55-1.46-7.78-20.09h3.62l4.09,11.29c.62,1.79,1,3.17,1.68,5.33a55.25,55.25,0,0,1,1.53-5.37l3.69-11.25h3.51Z"/><path class="cls-1" d="M215.2,135.78v15.41h-4.79V130.63H215v1.68a10.17,10.17,0,0,1,7-2.19v4.42A18.06,18.06,0,0,0,215.2,135.78Z"/><path class="cls-1" d="M232.81,151.73c-6,0-9.27-3.06-9.27-9.56v-2.52c0-6.47,3.28-9.53,9.27-9.53s9.28,3.06,9.28,9.53v2.52C242.09,148.67,238.8,151.73,232.81,151.73Zm4.49-12.08c0-4-1.35-5.41-4.49-5.41s-4.49,1.46-4.49,5.41v2.52c0,3.94,1.35,5.44,4.49,5.44s4.49-1.5,4.49-5.44Z"/><path class="cls-1" d="M253.35,151.73c-5.92,0-8.65-3.36-8.65-9.53v-2.59c0-6.28,2.73-9.49,8.65-9.49a23.42,23.42,0,0,1,6.35.76v3.66c-2.59-.22-4.38-.33-5.51-.33-3,0-4.68.95-4.68,5.4v2.59c0,4.42,1.68,5.44,4.68,5.44,1.13,0,2.92-.11,5.51-.32V151A25.22,25.22,0,0,1,253.35,151.73Z"/><path class="cls-1" d="M274.48,151.19l-7.26-9.75v9.75h-4.79V122.81h4.79v17l7.3-9.16H280l-8,9.86,8.18,10.7Z"/><path class="cls-1" d="M289.21,151.73c-5.92,0-8.66-3.36-8.66-9.53v-2.59c0-6.28,2.74-9.49,8.66-9.49a23.42,23.42,0,0,1,6.35.76v3.66c-2.59-.22-4.38-.33-5.51-.33-3,0-4.68.95-4.68,5.4v2.59c0,4.42,1.68,5.44,4.68,5.44,1.13,0,2.92-.11,5.51-.32V151A25.22,25.22,0,0,1,289.21,151.73Z"/><path class="cls-1" d="M306.82,151.73c-6,0-9.27-3.06-9.27-9.56v-2.52c0-6.47,3.28-9.53,9.27-9.53s9.28,3.06,9.28,9.53v2.52C316.1,148.67,312.81,151.73,306.82,151.73Zm4.49-12.08c0-4-1.35-5.41-4.49-5.41s-4.49,1.46-4.49,5.41v2.52c0,3.94,1.35,5.44,4.49,5.44s4.49-1.5,4.49-5.44Z"/><path class="cls-1" d="M332.44,151.19v-13c0-3-.51-4-2.89-4a15.77,15.77,0,0,0-5.4,1.39v15.63h-4.78V130.63H324v1.64a13.7,13.7,0,0,1,6.75-2.15c5.81,0,6.57,3.36,6.57,8v13Z"/><path class="cls-1" d="M349.06,151.73c-4.05,0-5.66-1.6-5.66-5.91V134.5l-3.83-.33v-3.54h3.83v-5.22h4.82v5.22h5v3.87h-5v11.25c0,1.89.15,2.26,1.9,2.26a30.75,30.75,0,0,0,3.1-.15v3.29A17.16,17.16,0,0,1,349.06,151.73Z"/><path class="cls-1" d="M359.72,142.42v.37c0,3,.44,4.93,5.48,4.93,2.16,0,4.71-.22,7.41-.48v3.62a33.31,33.31,0,0,1-7.63.87c-7.41,0-10-2.84-10-10.07v-1.28c0-6.9,3.14-10.26,9.27-10.26,6.87,0,9.28,4.45,9.28,10.7v1.6Zm8.95-3.47c0-2.37-.47-5-4.46-5s-4.45,2.63-4.45,5v.33h8.91Z"/><path class="cls-1" d="M389.64,151.19v-13c0-3-.51-4-2.88-4a15.72,15.72,0,0,0-5.4,1.39v15.63h-4.79V130.63h4.6v1.64a13.73,13.73,0,0,1,6.76-2.15c5.8,0,6.57,3.36,6.57,8v13Z"/><path class="cls-1" d="M406.27,151.73c-4.06,0-5.66-1.6-5.66-5.91V134.5l-3.84-.33v-3.54h3.84v-5.22h4.82v5.22h5v3.87h-5v11.25c0,1.89.14,2.26,1.89,2.26a31.14,31.14,0,0,0,3.11-.15v3.29A17.33,17.33,0,0,1,406.27,151.73Z"/><g id="Ãcone"><path class="cls-2" d="M41.76,31.16a7.19,7.19,0,0,0-7.19,7.19v6l37.26-.05V31.1Z"/><path class="cls-2" d="M34.63,84.74c0,4,3.22,6.69,7.19,6.69h6l-.06-34.65H34.57Z"/><path class="cls-2" d="M97.41,37.82c0-4-3.22-6.7-7.19-6.7h-6l0,34.7H97.47Z"/><path class="cls-2" d="M97.44,78.24H60.21V91.43H90.28a7.19,7.19,0,0,0,7.19-7.19Z"/><path id="_Compound_Path_12" data-name=" Compound Path 12" class="cls-2" d="M82.32,0h-33C16.39,0,0,20,0,61.26s16.39,61.12,49.33,61.12h33c32.93,0,49.33-19.92,49.33-61.12S115.25,0,82.32,0ZM79.85,109.48c-14.87,0,0,.06,0,.06H51.71s14.87-.06,0-.06c-35.39,0-35.32-21.09-35.32-48.18S16.28,13,51.71,13H79.85c35.4,0,35.32,21.21,35.32,48.31s.08,48.15-35.32,48.15Z"/></g><path class="cls-3" d="M165.16,101.47V32.79h16.22v68.68Z"/><path class="cls-3" d="M223.08,103.29c-20,0-31-10.24-31-31.95V62.92c0-21.59,11-31.84,31-31.84s31,10.25,31,31.84v8.42C254.06,93.05,243.08,103.29,223.08,103.29Zm15-40.37c0-13.18-4.51-18.05-15-18.05s-15,4.87-15,18.05v8.42c0,13.17,4.51,18.17,15,18.17s15-5,15-18.17Z"/><path class="cls-3" d="M307.21,101.47V57.92c0-9.88-1.71-13.3-9.64-13.3-4.64,0-10.74,1.71-18.06,4.64v52.21h-16V32.79h15.37v5.49c7.44-4.27,14.88-7.2,22.56-7.2,19.4,0,22,11.22,22,26.84v43.55Z"/><rect class="cls-3" x="164.96" y="7.86" width="16.62" height="15.36"/></g></g></svg>